<svg viewBox="0 0 32 32"  xmlns="http://www.w3.org/2000/svg"><path d="M31.449 26.483H.552A.552.552 0 010 25.93V6.069c0-.305.247-.552.552-.552H31.45c.304 0 .551.247.551.552v19.862a.552.552 0 01-.551.552z" fill="#73AF00"/><path d="M15.713 8.45L4.085 15.53a.552.552 0 000 .942l11.628 7.078a.552.552 0 00.574 0l11.629-7.078a.552.552 0 000-.942L16.287 8.45a.552.552 0 00-.573 0z" fill="#FFE15A"/><path d="M16 20.414a4.414 4.414 0 100-8.828 4.414 4.414 0 000 8.828z" fill="#41479B"/><path d="M12.213 13.742c-.208.349-.37.728-.475 1.13 2.446-.184 6.066.5 8.37 2.736.15-.384.25-.793.287-1.22-2.38-2.003-5.668-2.714-8.182-2.646zM16.183 17.506l.117.353.372.002a.05.05 0 01.03.09l-.3.221.112.355a.05.05 0 01-.076.055l-.303-.216-.302.216a.05.05 0 01-.076-.055l.111-.355-.298-.22a.05.05 0 01.029-.09l.371-.003.118-.353a.05.05 0 01.095 0zM17.627 18.418l.05.151.16.002c.02 0 .03.026.013.038l-.129.095.048.153a.021.021 0 01-.033.024l-.13-.093-.13.093a.022.022 0 01-.033-.024l.048-.152-.128-.095a.021.021 0 01.012-.04h.16l.05-.152c.007-.02.035-.02.042 0zM15.559 16.837l.05.151.16.002c.02 0 .03.026.013.039l-.129.095.048.152a.022.022 0 01-.033.024l-.13-.093-.13.093a.021.021 0 01-.033-.024l.048-.152-.128-.095a.022.022 0 01.012-.04h.16l.05-.152a.022.022 0 01.042 0zM12.758 16.653l.05.152h.16c.021.001.03.027.013.04l-.128.095.048.152a.022.022 0 01-.033.024l-.13-.093-.13.093c-.017.012-.04-.004-.033-.024l.048-.152-.129-.095a.022.022 0 01.013-.04h.16l.05-.152a.022.022 0 01.041 0zM15.101 18.365l.05.152.16.001c.021 0 .03.027.013.04l-.129.094.049.152a.022.022 0 01-.033.024l-.13-.092-.13.092a.022.022 0 01-.034-.023l.049-.153-.129-.095c-.017-.012-.008-.039.013-.039l.16-.001.05-.152c.007-.02.035-.02.041 0zM13.812 16.547l.041.124.131.001c.017 0 .024.022.01.032l-.105.078.04.124a.018.018 0 01-.027.02l-.107-.076-.106.076a.018.018 0 01-.027-.02l.04-.124-.106-.078c-.013-.01-.007-.032.01-.032h.131l.042-.125a.018.018 0 01.033 0zM17.739 13.987l.052.155.163.002c.021 0 .03.027.013.04l-.132.096.05.156c.006.02-.017.037-.034.025l-.133-.095-.133.095a.022.022 0 01-.034-.025l.05-.156-.132-.097a.022.022 0 01.013-.04h.163l.052-.156a.022.022 0 01.042 0zM12.938 15.789l.042.123.13.002c.018 0 .025.021.011.031l-.105.078.04.125a.018.018 0 01-.028.02l-.106-.077-.107.076a.018.018 0 01-.027-.02l.04-.124-.105-.078a.018.018 0 01.01-.031l.13-.002.042-.123c.005-.016.028-.016.034 0zM13.57 17.536l.062.188.198.002c.026 0 .037.033.016.048l-.16.117.06.19a.027.027 0 01-.04.029l-.162-.115-.16.115a.027.027 0 01-.042-.03l.06-.189-.16-.117a.027.027 0 01.016-.048l.198-.002.063-.188c.008-.024.043-.024.05 0zM18.432 18.457l.04.118.124.001c.016 0 .023.021.01.03l-.1.074.037.12a.017.017 0 01-.026.018l-.101-.073-.102.073a.017.017 0 01-.025-.019l.037-.119-.1-.073a.017.017 0 01.01-.03l.124-.002.04-.118c.005-.015.027-.015.032 0zM18.867 17.555l.051.152.16.001c.02 0 .03.027.012.039l-.128.095.048.152a.022.022 0 01-.033.024l-.13-.093-.13.093a.022.022 0 01-.033-.024l.048-.152-.129-.095a.022.022 0 01.013-.039l.16-.001.05-.152c.007-.02.035-.02.041 0z" fill="#F5F5F5"/><defs><clipPath id="prefix__clip0_737_341"><path fill="#fff" d="M0 0h32v32H0z"/></clipPath></defs></svg>