<svg viewBox="0 0 32 32" xmlns="http://www.w3.org/2000/svg"><path d="M31.448 26.483H.552A.552.552 0 010 25.93V6.069c0-.305.247-.552.552-.552h30.896c.305 0 .552.247.552.552v19.862a.552.552 0 01-.552.552z" fill="#F5F5F5"/><path d="M32 7.13H0V6.069c0-.305.247-.552.552-.552h30.896c.305 0 .552.247.552.552V7.13zM32 11.968H0v1.613h32v-1.613zM32 8.742H0v1.613h32V8.742zM32 16.806H.552A.552.552 0 010 16.255v-1.061h32v1.612zM32 21.645H0v1.613h32v-1.613zM31.448 26.483H.552A.552.552 0 010 25.93V24.87h32v1.061a.552.552 0 01-.552.552zM32 18.42H0v1.612h32V18.42z" fill="#9B9C9A"/><path d="M14.345 5.517H.552A.552.552 0 000 6.07v10.186c0 .304.247.551.552.551h13.793a.552.552 0 00.552-.551V6.069a.552.552 0 00-.552-.552z" fill="#3C3C3C"/><path d="M1.55 6.784l.122.366.386.003c.05 0 .07.064.03.094l-.31.23.117.367a.052.052 0 01-.08.058L1.5 7.678l-.314.224a.052.052 0 01-.08-.058l.116-.368-.31-.23a.052.052 0 01.03-.093l.386-.003.122-.366a.052.052 0 01.099 0zM1.55 8.7l.122.366.386.003c.05 0 .07.064.03.094l-.31.229.116.368a.052.052 0 01-.08.058L1.5 9.594l-.314.224a.052.052 0 01-.08-.058l.117-.368-.31-.23a.052.052 0 01.03-.093l.386-.003.122-.366a.052.052 0 01.099 0zM1.55 10.615l.122.367.386.003c.05 0 .07.064.03.093l-.31.23.116.368a.052.052 0 01-.08.058l-.314-.225-.314.225a.052.052 0 01-.08-.058l.117-.368-.31-.23a.052.052 0 01.03-.093l.386-.003.122-.367a.052.052 0 01.099 0zM1.55 12.531l.122.367.386.002c.05 0 .07.065.03.094l-.31.23.116.368a.052.052 0 01-.08.058l-.314-.225-.314.225a.052.052 0 01-.08-.058l.117-.368-.31-.23a.052.052 0 01.03-.094l.386-.002.122-.367a.052.052 0 01.099 0zM1.55 14.447l.122.366.386.003c.05 0 .07.065.03.094l-.31.23.116.368a.052.052 0 01-.08.058L1.5 15.34l-.314.225a.052.052 0 01-.08-.058l.117-.368-.31-.23a.052.052 0 01.03-.094l.386-.003.122-.366a.052.052 0 01.099 0zM3.037 7.723l.122.366.386.003c.05 0 .07.064.03.094l-.31.23.116.367a.052.052 0 01-.08.058l-.314-.224-.314.224a.052.052 0 01-.08-.058l.117-.368-.31-.229a.052.052 0 01.03-.094l.386-.003.122-.366a.052.052 0 01.099 0zM3.037 9.639l.122.366.386.003c.05 0 .07.064.03.094l-.31.23.116.367a.052.052 0 01-.08.058l-.314-.224-.314.224a.052.052 0 01-.08-.058l.117-.368-.31-.23a.052.052 0 01.03-.093l.386-.003.122-.366a.052.052 0 01.099 0zM3.037 11.555l.122.366.386.003c.05 0 .07.064.03.094l-.31.23.116.367a.052.052 0 01-.08.058l-.314-.224-.314.224a.052.052 0 01-.08-.058l.117-.368-.31-.23a.052.052 0 01.03-.093l.386-.003.122-.366a.052.052 0 01.099 0zM3.037 13.47l.122.367.386.003c.05 0 .07.064.03.094l-.31.229.116.368a.052.052 0 01-.08.058l-.314-.224-.314.224a.052.052 0 01-.08-.058l.117-.368-.31-.23a.052.052 0 01.03-.093l.386-.003.122-.366a.052.052 0 01.099 0zM4.524 6.784l.122.366.386.003c.05 0 .07.064.03.094l-.31.23.116.367a.052.052 0 01-.08.058l-.314-.224-.314.224a.052.052 0 01-.08-.058l.117-.368-.31-.23a.052.052 0 01.03-.093l.386-.003.122-.366a.052.052 0 01.099 0zM4.524 8.7l.122.366.386.003c.05 0 .07.064.03.094l-.31.229.116.368a.052.052 0 01-.08.058l-.314-.225-.314.225a.052.052 0 01-.08-.058l.117-.368-.31-.23a.052.052 0 01.03-.093l.386-.003.122-.367a.052.052 0 01.099 0zM4.524 10.615l.122.367.386.003c.05 0 .07.064.03.093l-.31.23.116.368a.052.052 0 01-.08.058l-.314-.225-.314.225a.052.052 0 01-.08-.058l.117-.368-.31-.23a.052.052 0 01.03-.093l.386-.003.122-.367a.052.052 0 01.099 0zM4.524 12.531l.122.367.386.002c.05 0 .07.065.03.094l-.31.23.116.368a.052.052 0 01-.08.058l-.314-.225-.314.225a.052.052 0 01-.08-.058l.117-.368-.31-.23a.052.052 0 01.03-.094l.386-.002.122-.367a.052.052 0 01.099 0zM4.524 14.447l.122.366.386.003c.05 0 .07.065.03.094l-.31.23.116.368a.052.052 0 01-.08.058l-.314-.225-.314.225a.052.052 0 01-.08-.058l.117-.368-.31-.23a.052.052 0 01.03-.094l.386-.003.122-.366a.052.052 0 01.099 0zM6.01 7.723l.123.366.386.003c.05 0 .07.064.03.094l-.31.23.116.367a.052.052 0 01-.08.058l-.314-.224-.314.224a.052.052 0 01-.08-.058l.117-.368-.31-.229a.052.052 0 01.03-.094l.386-.003.122-.366a.052.052 0 01.099 0zM6.01 9.639l.123.366.386.003c.05 0 .07.064.03.094l-.31.23.116.367a.052.052 0 01-.08.058l-.314-.224-.314.224a.052.052 0 01-.08-.058l.117-.368-.31-.23a.052.052 0 01.03-.093l.386-.003.122-.366a.052.052 0 01.099 0zM6.01 11.555l.123.366.386.003c.05 0 .07.064.03.094l-.31.23.116.367a.052.052 0 01-.08.058l-.314-.224-.314.224a.052.052 0 01-.08-.058l.117-.368-.31-.23a.052.052 0 01.03-.093l.386-.003.122-.366a.052.052 0 01.099 0zM6.01 13.47l.123.367.386.003c.05 0 .07.064.03.094l-.31.229.116.368a.052.052 0 01-.08.058l-.314-.224-.314.224a.052.052 0 01-.08-.058l.117-.368-.31-.23a.052.052 0 01.03-.093l.386-.003.122-.366a.052.052 0 01.099 0zM7.498 6.784l.122.366.386.003c.05 0 .07.064.03.094l-.31.23.116.367a.052.052 0 01-.08.058l-.314-.224-.314.224a.052.052 0 01-.08-.058l.117-.368-.31-.23a.052.052 0 01.03-.093l.386-.003.122-.366a.052.052 0 01.099 0zM7.498 8.7l.122.366.386.003c.05 0 .07.064.03.094l-.31.229.116.368a.052.052 0 01-.08.058l-.314-.225-.314.225a.052.052 0 01-.08-.058l.117-.368-.31-.23a.052.052 0 01.03-.093l.386-.003.122-.367a.052.052 0 01.099 0zM7.498 10.615l.122.367.386.003c.05 0 .07.064.03.093l-.31.23.116.368a.052.052 0 01-.08.058l-.314-.225-.314.225a.052.052 0 01-.08-.058l.117-.368-.31-.23a.052.052 0 01.03-.093l.386-.003.122-.367a.052.052 0 01.099 0zM7.498 12.531l.122.367.386.002c.05 0 .07.065.03.094l-.31.23.116.368a.052.052 0 01-.08.058l-.314-.225-.314.225a.052.052 0 01-.08-.058l.117-.368-.31-.23a.052.052 0 01.03-.094l.386-.002.122-.367a.052.052 0 01.099 0zM7.498 14.447l.122.366.386.003c.05 0 .07.065.03.094l-.31.23.116.368a.052.052 0 01-.08.058l-.314-.225-.314.225a.052.052 0 01-.08-.058l.117-.368-.31-.23a.052.052 0 01.03-.094l.386-.003.122-.366a.052.052 0 01.099 0zM8.985 7.723l.122.366.386.003c.05 0 .07.064.03.094l-.31.23.117.367a.052.052 0 01-.08.058l-.314-.224-.314.224a.052.052 0 01-.08-.058l.116-.368-.31-.229a.052.052 0 01.03-.094l.386-.003.122-.366a.052.052 0 01.099 0zM8.985 9.639l.122.366.386.003c.05 0 .07.064.03.094l-.31.23.117.367a.052.052 0 01-.08.058l-.314-.224-.314.224a.052.052 0 01-.08-.058l.116-.368-.31-.23a.052.052 0 01.03-.093l.386-.003.122-.366a.052.052 0 01.099 0zM8.985 11.555l.122.366.386.003c.05 0 .07.064.03.094l-.31.23.117.367a.052.052 0 01-.08.058l-.314-.224-.314.224a.052.052 0 01-.08-.058l.116-.368-.31-.23a.052.052 0 01.03-.093l.386-.003.122-.366a.052.052 0 01.099 0zM8.985 13.47l.122.367.386.003c.05 0 .07.064.03.094l-.31.229.117.368a.052.052 0 01-.08.058l-.314-.224-.314.224a.052.052 0 01-.08-.058l.116-.368-.31-.23a.052.052 0 01.03-.093l.386-.003.122-.366a.052.052 0 01.099 0zM10.472 6.784l.122.366.386.003c.05 0 .07.064.03.094l-.31.23.117.367a.052.052 0 01-.08.058l-.314-.224-.314.224a.052.052 0 01-.08-.058l.116-.368-.31-.23a.052.052 0 01.03-.093l.386-.003.122-.366a.052.052 0 01.1 0zM10.472 8.7l.122.366.386.003c.05 0 .07.064.03.094l-.31.229.117.368a.052.052 0 01-.08.058l-.314-.225-.314.225a.052.052 0 01-.08-.058l.116-.368-.31-.23a.052.052 0 01.03-.093l.386-.003.122-.367a.052.052 0 01.1 0zM10.472 10.615l.122.367.386.003c.05 0 .07.064.03.093l-.31.23.117.368a.052.052 0 01-.08.058l-.314-.225-.314.225a.052.052 0 01-.08-.058l.116-.368-.31-.23a.052.052 0 01.03-.093l.386-.003.122-.367a.052.052 0 01.1 0zM10.472 12.531l.122.367.386.002c.05 0 .07.065.03.094l-.31.23.117.368a.052.052 0 01-.08.058l-.314-.225-.314.225a.052.052 0 01-.08-.058l.116-.368-.31-.23a.052.052 0 01.03-.094l.386-.002.122-.367a.052.052 0 01.1 0zM10.472 14.447l.122.366.386.003c.05 0 .07.065.03.094l-.31.23.117.368a.052.052 0 01-.08.058l-.314-.225-.314.225a.052.052 0 01-.08-.058l.116-.368-.31-.23a.052.052 0 01.03-.094l.386-.003.122-.366a.052.052 0 01.1 0zM11.96 7.723l.121.366.386.003c.05 0 .07.064.03.094l-.31.23.117.367a.052.052 0 01-.08.058l-.314-.224-.314.224a.052.052 0 01-.08-.058l.116-.368-.31-.229a.052.052 0 01.03-.094l.386-.003.122-.366a.052.052 0 01.1 0zM11.96 9.639l.121.366.386.003c.05 0 .07.064.03.094l-.31.23.117.367a.052.052 0 01-.08.058l-.314-.224-.314.224a.052.052 0 01-.08-.058l.116-.368-.31-.23a.052.052 0 01.03-.093l.386-.003.122-.366a.052.052 0 01.1 0zM11.96 11.555l.121.366.386.003c.05 0 .07.064.03.094l-.31.23.117.367a.052.052 0 01-.08.058l-.314-.224-.314.224a.052.052 0 01-.08-.058l.116-.368-.31-.23a.052.052 0 01.03-.093l.386-.003.122-.366a.052.052 0 01.1 0zM11.96 13.47l.121.367.386.003c.05 0 .07.064.03.094l-.31.229.117.368a.052.052 0 01-.08.058l-.314-.224-.314.224a.052.052 0 01-.08-.058l.116-.368-.31-.23a.052.052 0 01.03-.093l.386-.003.122-.366a.052.052 0 01.1 0zM13.446 6.784l.122.366.386.003c.05 0 .071.064.03.094l-.31.23.117.367a.052.052 0 01-.08.058l-.314-.224-.314.224a.052.052 0 01-.08-.058l.116-.368-.31-.23a.052.052 0 01.03-.093l.386-.003.123-.366a.052.052 0 01.098 0zM13.446 8.7l.122.366.386.003c.05 0 .071.064.03.094l-.31.229.117.368a.052.052 0 01-.08.058l-.314-.225-.314.225a.052.052 0 01-.08-.058l.116-.368-.31-.23a.052.052 0 01.03-.093l.386-.003.123-.367a.052.052 0 01.098 0zM13.446 10.615l.122.367.386.003c.05 0 .071.064.03.093l-.31.23.117.368a.052.052 0 01-.08.058l-.314-.225-.314.225a.052.052 0 01-.08-.058l.116-.368-.31-.23a.052.052 0 01.03-.093l.386-.003.123-.367a.052.052 0 01.098 0zM13.446 12.531l.122.367.386.002c.05 0 .071.065.03.094l-.31.23.117.368a.052.052 0 01-.08.058l-.314-.225-.314.225a.052.052 0 01-.08-.058l.116-.368-.31-.23a.052.052 0 01.03-.094l.386-.002.123-.367a.052.052 0 01.098 0zM13.446 14.447l.122.366.386.003c.05 0 .071.065.03.094l-.31.23.117.368a.052.052 0 01-.08.058l-.314-.225-.314.225a.052.052 0 01-.08-.058l.116-.368-.31-.23a.052.052 0 01.03-.094l.386-.003.123-.366a.052.052 0 01.098 0z" fill="#F5F5F5"/><defs><clipPath id="prefix__clip0_737_345"><path fill="#fff" d="M0 0h32v32H0z"/></clipPath></defs></svg>