<svg xmlns="http://www.w3.org/2000/svg" viewBox="0 0 32 32" ><path d="M16 10a6 6 0 100 12 6 6 0 000-12zm0 10a4 4 0 110-8 4 4 0 010 8zm13.743-6.599a1 1 0 00-.486-.675l-3.73-2.125-.014-4.202a.999.999 0 00-.354-.76 13.989 13.989 0 00-4.59-2.584 1 1 0 00-.807.074L16 5.23l-3.765-2.106a1 1 0 00-.808-.075A14.012 14.012 0 006.84 5.644a1 1 0 00-.353.759l-.019 4.206-3.729 2.125a1 1 0 00-.486.675 13.309 13.309 0 000 5.195 1 1 0 00.486.675l3.729 2.125.015 4.202a1 1 0 00.354.76 13.989 13.989 0 004.59 2.584 1 1 0 00.807-.074L16 26.77l3.765 2.106a1.008 1.008 0 00.809.073 14.013 14.013 0 004.585-2.592 1 1 0 00.354-.759l.018-4.206 3.73-2.125a1 1 0 00.486-.675c.339-1.713.338-3.477-.004-5.19zm-1.875 4.364l-3.571 2.031a1 1 0 00-.375.375c-.073.125-.15.258-.227.383a.993.993 0 00-.152.526l-.019 4.031c-.96.754-2.03 1.357-3.171 1.788L16.75 24.89a1 1 0 00-.488-.125H15.783a1.01 1.01 0 00-.513.125l-3.605 2.013a12.002 12.002 0 01-3.18-1.779L8.471 21.1a1 1 0 00-.152-.527 7.145 7.145 0 01-.225-.383 1.011 1.011 0 00-.375-.383l-3.575-2.036a11.311 11.311 0 010-3.532l3.565-2.035a1 1 0 00.375-.375c.072-.125.149-.258.226-.383.1-.157.152-.34.153-.526l.018-4.031c.96-.754 2.03-1.357 3.172-1.788L15.25 7.11a1 1 0 00.513.125h.455a1.01 1.01 0 00.512-.125l3.605-2.013a11.998 11.998 0 013.18 1.779l.014 4.025a1 1 0 00.152.527c.078.126.154.25.226.383.088.159.217.291.375.383l3.575 2.036c.187 1.17.19 2.364.006 3.536h.005z"/></svg>