<svg viewBox="0 0 300 300"  fill="none" xmlns="http://www.w3.org/2000/svg"><circle cx="150" cy="150" r="148.5" fill="#100C30" stroke="#000" stroke-width="3"/><path d="M77.384 204.178c.533 0 .907.085 1.12.256.235.149.352.459.352.928 0 .256-.01.459-.032.608-.085.661-.352 2.368-.8 5.12-.32 1.856-.523 3.083-.608 3.68-.81 5.504-1.91 9.845-3.296 13.024-1.365 3.2-3.2 4.8-5.504 4.8-1.088 0-1.973-.341-2.656-1.024-.683-.661-1.024-1.536-1.024-2.624 0-1.515.597-3.147 1.792-4.896 1.195-1.728 3.435-3.861 6.72-6.4l.192-1.248a3.79 3.79 0 01-1.44 1.344c-.576.299-1.152.448-1.728.448-1.323 0-2.379-.48-3.168-1.44-.79-.96-1.184-2.219-1.184-3.776 0-1.707.395-3.317 1.184-4.832.79-1.536 1.835-2.763 3.136-3.68 1.323-.939 2.72-1.408 4.192-1.408.47 0 .779.096.928.288.17.171.31.491.416.96a6.913 6.913 0 011.408-.128zm-5.76 10.784c.49 0 .96-.299 1.408-.896.448-.597.768-1.451.96-2.56l1.024-5.472c-.875.021-1.685.363-2.432 1.024-.747.64-1.344 1.493-1.792 2.56a8.67 8.67 0 00-.672 3.392c0 .661.128 1.152.384 1.472.277.32.65.48 1.12.48zm-2.656 14.528c.533 0 1.13-.64 1.792-1.92.683-1.28 1.333-3.317 1.952-6.112-1.643 1.408-2.827 2.677-3.552 3.808-.725 1.131-1.088 2.123-1.088 2.976 0 .363.064.661.192.896.15.235.384.352.704.352zm14.151-11.296c-.939 0-1.653-.256-2.144-.768-.47-.512-.704-1.184-.704-2.016 0-.96.267-1.728.8-2.304.555-.576 1.323-.864 2.304-.864.939 0 1.643.235 2.112.704.49.448.736 1.12.736 2.016 0 .981-.277 1.771-.832 2.368-.555.576-1.312.864-2.272.864zm9.634 0c-1.322 0-2.378-.48-3.168-1.44s-1.184-2.219-1.184-3.776c0-1.707.395-3.317 1.184-4.832.79-1.536 1.835-2.763 3.136-3.68 1.323-.939 2.72-1.408 4.192-1.408.47 0 .779.096.928.288.17.171.31.491.416.96a7.541 7.541 0 011.408-.128c1.046 0 1.568.373 1.568 1.12 0 .448-.16 1.515-.48 3.2-.49 2.453-.736 4.16-.736 5.12 0 .32.075.576.224.768a.821.821 0 00.64.288c.406 0 .896-.256 1.472-.768.576-.533 1.355-1.387 2.336-2.56.256-.299.544-.448.864-.448.278 0 .491.128.64.384.171.256.256.608.256 1.056 0 .853-.202 1.515-.608 1.984-.874 1.088-1.802 2.005-2.784 2.752-.981.747-1.93 1.12-2.848 1.12-.704 0-1.354-.235-1.952-.704-.576-.491-1.013-1.152-1.312-1.984-1.11 1.792-2.506 2.688-4.192 2.688zm1.152-3.232c.47 0 .918-.277 1.344-.832.427-.555.736-1.291.928-2.208l1.184-5.888c-.896.021-1.728.363-2.496 1.024-.746.64-1.344 1.493-1.792 2.56a8.67 8.67 0 00-.672 3.392c0 .661.128 1.152.384 1.472.278.32.65.48 1.12.48zm22.072-4.064c.277 0 .49.128.64.384.17.256.256.608.256 1.056 0 .853-.203 1.515-.608 1.984-.918 1.131-1.92 2.059-3.008 2.784-1.067.725-2.283 1.088-3.648 1.088-1.878 0-3.275-.853-4.192-2.56-.896-1.707-1.344-3.915-1.344-6.624 0-2.603.33-5.568.992-8.896.682-3.328 1.674-6.187 2.976-8.576 1.322-2.389 2.89-3.584 4.704-3.584 1.024 0 1.824.48 2.4 1.44.597.939.896 2.293.896 4.064 0 2.539-.704 5.483-2.112 8.832-1.408 3.349-3.318 6.667-5.728 9.952.149.875.394 1.504.736 1.888.341.363.789.544 1.344.544.874 0 1.642-.245 2.304-.736.661-.512 1.504-1.376 2.528-2.592.256-.299.544-.448.864-.448zm-3.936-19.776c-.491 0-1.046.885-1.664 2.656-.619 1.771-1.163 3.968-1.632 6.592-.47 2.624-.726 5.141-.768 7.552 1.514-2.496 2.72-4.992 3.616-7.488.896-2.517 1.344-4.811 1.344-6.88 0-1.621-.299-2.432-.896-2.432zm16.517 19.776c.277 0 .491.128.64.384.171.256.256.608.256 1.056 0 .853-.203 1.515-.608 1.984-.789.96-1.909 1.845-3.36 2.656a9.183 9.183 0 01-4.608 1.216c-2.24 0-3.979-.608-5.216-1.824-1.237-1.216-1.856-2.88-1.856-4.992 0-1.472.309-2.837.928-4.096.619-1.28 1.472-2.293 2.56-3.04 1.109-.747 2.357-1.12 3.744-1.12 1.237 0 2.229.373 2.976 1.12.747.725 1.12 1.717 1.12 2.976 0 1.472-.533 2.741-1.6 3.808-1.045 1.045-2.827 1.877-5.344 2.496.533.981 1.547 1.472 3.04 1.472.96 0 2.048-.331 3.264-.992a10.988 10.988 0 003.2-2.656c.256-.299.544-.448.864-.448zm-8.064-4.64c-.789 0-1.461.459-2.016 1.376-.533.917-.8 2.027-.8 3.328v.064c1.259-.299 2.251-.747 2.976-1.344.725-.597 1.088-1.291 1.088-2.08 0-.405-.117-.725-.352-.96-.213-.256-.512-.384-.896-.384zm24.068 4.64c.277 0 .49.128.64.384.17.256.256.608.256 1.056 0 .853-.203 1.515-.608 1.984-.918 1.131-1.91 2.059-2.976 2.784-1.046.725-2.24 1.088-3.584 1.088-1.131 0-2.048-.405-2.752-1.216-1.216.789-2.486 1.195-3.808 1.216-.278 4.117-.907 7.552-1.888 10.304-.982 2.773-2.422 4.16-4.321 4.16-1.152 0-2.005-.416-2.56-1.248-.554-.832-.832-1.984-.832-3.456 0-2.091.48-4.533 1.44-7.328.96-2.773 2.443-5.835 4.449-9.184 0-3.115-.022-5.28-.064-6.496-.022-.619.224-1.109.736-1.472s1.152-.544 1.92-.544c.448 0 .768.096.96.288.213.171.33.523.352 1.056 0 .533.01.928.032 1.184.682-.853 1.354-1.461 2.016-1.824a4.137 4.137 0 012.112-.576c1.194 0 2.165.48 2.912 1.44.768.96 1.152 2.219 1.152 3.776 0 1.131-.182 2.229-.544 3.296a10.775 10.775 0 01-1.504 2.912c.448.128.821.192 1.12.192.704 0 1.376-.256 2.016-.768.64-.512 1.461-1.365 2.464-2.56.256-.299.544-.448.864-.448zm-12.672 4.224c.768-.171 1.472-.587 2.112-1.248.661-.683 1.184-1.515 1.568-2.496a8.696 8.696 0 00.576-3.136c0-.64-.128-1.12-.384-1.44a1.218 1.218 0 00-1.024-.512c-.768 0-1.696.811-2.784 2.432-.022.939-.032 2.315-.032 4.128 0 .981-.011 1.739-.032 2.272zm-6.113 14.4c.577 0 1.057-1.259 1.441-3.776.384-2.496.629-5.611.736-9.344-.918 2.133-1.643 4.171-2.177 6.112-.533 1.941-.8 3.573-.8 4.896 0 .683.086 1.205.256 1.568.15.363.331.544.544.544zm19.375-11.328c-.811 0-1.387-.427-1.728-1.28-.32-.853-.48-2.219-.48-4.096 0-2.773.394-5.408 1.184-7.904.192-.619.501-1.067.928-1.344.448-.299 1.066-.448 1.856-.448.426 0 .725.053.896.16.17.107.256.309.256.608 0 .341-.16 1.109-.48 2.304-.214.853-.384 1.6-.512 2.24-.128.64-.235 1.429-.32 2.368.704-1.835 1.493-3.328 2.368-4.48.874-1.152 1.728-1.973 2.56-2.464.853-.491 1.632-.736 2.336-.736 1.386 0 2.08.693 2.08 2.08 0 .277-.096.949-.288 2.016-.171.853-.256 1.387-.256 1.6 0 .747.266 1.12.8 1.12.597 0 1.365-.469 2.304-1.408.277-.277.565-.416.864-.416.277 0 .49.128.64.384.17.235.256.555.256.96 0 .789-.214 1.408-.64 1.856a8.9 8.9 0 01-2.112 1.6c-.79.427-1.632.64-2.528.64-1.131 0-1.995-.288-2.592-.864-.576-.576-.864-1.355-.864-2.336 0-.32.032-.64.096-.96.042-.427.064-.715.064-.864 0-.341-.118-.512-.352-.512-.32 0-.747.363-1.28 1.088-.512.704-1.024 1.643-1.536 2.816a22.986 22.986 0 00-1.248 3.712c-.235 1.003-.512 1.685-.832 2.048-.299.341-.779.512-1.44.512zm28.61-9.984c.278 0 .491.139.64.416.15.277.224.629.224 1.056 0 1.024-.309 1.632-.928 1.824-1.28.448-2.688.704-4.224.768-.405 1.792-1.205 3.232-2.4 4.32-1.194 1.067-2.549 1.6-4.064 1.6-1.28 0-2.378-.309-3.296-.928a5.944 5.944 0 01-2.048-2.464 7.895 7.895 0 01-.704-3.328c0-1.621.31-3.061.928-4.32.619-1.28 1.472-2.272 2.56-2.976a6.383 6.383 0 013.616-1.088c1.622 0 2.923.565 3.904 1.696 1.003 1.109 1.59 2.485 1.76 4.128 1.003-.064 2.198-.277 3.584-.64.171-.043.32-.064.448-.064zm-10.496 6.592c.683 0 1.27-.277 1.76-.832.512-.555.854-1.355 1.024-2.4a4.55 4.55 0 01-1.536-1.76 5.348 5.348 0 01-.512-2.304c0-.341.032-.683.096-1.024h-.16c-.853 0-1.568.416-2.144 1.248-.554.811-.832 1.963-.832 3.456 0 1.173.224 2.069.672 2.688.47.619 1.014.928 1.632.928zm12.038-13.792c-.896 0-1.568-.203-2.016-.608-.448-.427-.672-1.013-.672-1.76 0-.747.288-1.365.864-1.856.597-.512 1.333-.768 2.208-.768.789 0 1.429.192 1.92.576.49.384.736.928.736 1.632 0 .853-.278 1.536-.832 2.048-.555.491-1.291.736-2.208.736zm5.76 9.952c.277 0 .49.139.64.416.17.256.256.587.256.992 0 .491-.075.875-.224 1.152-.15.277-.384.523-.704.736a311.755 311.755 0 00-5.984 4.064c-.832 4.437-1.91 7.925-3.232 10.464-1.323 2.539-3.008 3.808-5.056 3.808-1.11 0-1.995-.341-2.656-1.024-.683-.661-1.024-1.536-1.024-2.624 0-1.515.586-3.136 1.76-4.864 1.173-1.707 3.381-3.819 6.624-6.336l.224-1.632c.298-2.048.533-4.064.704-6.048.128-1.152.33-2.869.608-5.152.085-.619.32-1.067.704-1.344.384-.299.97-.448 1.76-.448.64 0 1.056.096 1.248.288.213.192.32.459.32.8 0 .981-.352 3.691-1.056 8.128l-.32 2.208a104.281 104.281 0 014.672-3.328c.277-.171.522-.256.736-.256zm-13.952 18.528c.554 0 1.162-.629 1.824-1.888.661-1.259 1.28-3.285 1.856-6.08-1.622 1.387-2.784 2.635-3.488 3.744-.726 1.131-1.088 2.123-1.088 2.976 0 .832.298 1.248.896 1.248zm27.165-18.592c.277 0 .49.128.64.384.17.256.256.608.256 1.056 0 .853-.203 1.515-.608 1.984-.79.96-1.91 1.845-3.36 2.656a9.189 9.189 0 01-4.608 1.216c-2.24 0-3.979-.608-5.216-1.824-1.238-1.216-1.856-2.88-1.856-4.992 0-1.472.309-2.837.928-4.096.618-1.28 1.472-2.293 2.56-3.04 1.109-.747 2.357-1.12 3.744-1.12 1.237 0 2.229.373 2.976 1.12.746.725 1.12 1.717 1.12 2.976 0 1.472-.534 2.741-1.6 3.808-1.046 1.045-2.827 1.877-5.344 2.496.533.981 1.546 1.472 3.04 1.472.96 0 2.048-.331 3.264-.992a10.988 10.988 0 003.2-2.656c.256-.299.544-.448.864-.448zm-8.064-4.64c-.79 0-1.462.459-2.016 1.376-.534.917-.8 2.027-.8 3.328v.064c1.258-.299 2.25-.747 2.976-1.344.725-.597 1.088-1.291 1.088-2.08 0-.405-.118-.725-.352-.96-.214-.256-.512-.384-.896-.384zm20.626 4.64c.278 0 .491.128.64.384.171.256.256.608.256 1.056 0 .853-.202 1.515-.608 1.984-.917 1.131-1.92 2.059-3.008 2.784-1.088.725-2.336 1.088-3.744 1.088-4.352 0-6.528-3.061-6.528-9.184 0-.939.032-1.888.096-2.848h-1.248c-.64 0-1.077-.117-1.312-.352-.213-.235-.32-.608-.32-1.12 0-1.195.48-1.792 1.44-1.792h1.824c.363-2.347.918-4.491 1.664-6.432.747-1.941 1.643-3.488 2.688-4.64 1.067-1.152 2.208-1.728 3.424-1.728.896 0 1.6.395 2.112 1.184.512.789.768 1.781.768 2.976 0 3.307-1.386 6.187-4.16 8.64h3.584c.342 0 .587.075.736.224.15.149.224.427.224.832 0 1.472-1.205 2.208-3.616 2.208h-3.904a68.026 68.026 0 00-.064 2.496c0 2.219.256 3.776.768 4.672.534.896 1.366 1.344 2.496 1.344.918 0 1.728-.277 2.432-.832.704-.555 1.536-1.387 2.496-2.496.256-.299.544-.448.864-.448zm-5.6-17.728c-.32 0-.682.405-1.088 1.216-.384.789-.757 1.899-1.12 3.328a46.977 46.977 0 00-.864 4.704c1.259-1.088 2.198-2.304 2.816-3.648.64-1.365.96-2.603.96-3.712 0-1.259-.234-1.888-.704-1.888zm9.299 25.024c-1.259 0-2.336-.309-3.232-.928a6.019 6.019 0 01-1.984-2.496 8.133 8.133 0 01-.672-3.296c0-1.621.298-3.061.896-4.32.618-1.28 1.45-2.272 2.496-2.976 1.045-.725 2.218-1.088 3.52-1.088 1.258 0 2.336.32 3.232.96a5.714 5.714 0 012.016 2.464 8.133 8.133 0 01.672 3.296c0 1.621-.31 3.072-.928 4.352-.619 1.259-1.462 2.251-2.528 2.976a6.109 6.109 0 01-3.488 1.056zm.352-3.456c.725 0 1.333-.395 1.824-1.184.512-.789.768-1.941.768-3.456 0-1.173-.214-2.059-.64-2.656-.427-.597-.939-.896-1.536-.896-.768 0-1.408.395-1.92 1.184-.491.768-.736 1.92-.736 3.456 0 1.216.213 2.112.64 2.688.426.576.96.864 1.6.864zm14.536 4.16c-1.11 0-1.963-.256-2.56-.768-.576-.512-.864-1.088-.864-1.728 0-.555.202-1.035.608-1.44.405-.405 1.002-.608 1.792-.608.277 0 .597.032.96.096l.864.096a3.97 3.97 0 00-.384-1.568 6.818 6.818 0 00-.832-1.408 17.807 17.807 0 00-.96-1.216c-.662 1.259-1.323 2.304-1.984 3.136a22.092 22.092 0 01-2.112 2.368c-.384.384-.79.576-1.216.576-.342 0-.619-.117-.833-.352a1.403 1.403 0 01-.32-.928c0-.427.15-.821.449-1.184l.416-.512c1.173-1.451 2.058-2.645 2.656-3.584.384-.619.768-1.355 1.152-2.208.405-.853.928-2.016 1.568-3.488.405-.939 1.248-1.408 2.528-1.408.597 0 1.013.053 1.248.16.234.107.352.277.352.512 0 .128-.043.331-.128.608a4.698 4.698 0 01-.352.832c-.384.768-.576 1.419-.576 1.952 0 .32.106.672.32 1.056.234.384.586.864 1.056 1.44.682.896 1.194 1.664 1.536 2.304.362.619.544 1.301.544 2.048a5.43 5.43 0 01-.64 2.56 5.005 5.005 0 01-1.728 1.92c-.747.491-1.6.736-2.56.736z" fill="#fff"/><path d="M106.163 62.102l-.002.009c-.029.172-.059.43-.09.775-.061.688-.12 1.686-.176 2.964-.112 2.554-.212 6.203-.295 10.677-.167 8.946-.267 21.176-.267 34.507 0 20.47.067 32.759.35 40.331.141 3.787.336 6.379.601 8.216.265 1.84.596 2.89.989 3.615l.001.003 2.134 4 .392.735H82.3l-1.22-.002c-2.996-.009-5.825-.016-7.819.439-1.133.259-1.88.645-2.259 1.159-.324.442-.448 1.081-.122 2.08a.612.612 0 01.333.556c0 .075 0 .104-.002.114.015.023.11.146.517.321.41.175 1.08.379 2.164.592 4.345.857 14.942 1.808 40.681 2.141 33.2.4 72.523.4 87.576-.133h0l26.851-.917v-5.696l-15.113-.387-15.6-.4-.746-.02.301-.682 1.997-4.526.002-.004c.508-1.21.967-3.127 1.298-5.262.33-2.128.527-4.436.527-6.406v-7.659l.298-.132 5.734-2.533.001-.001c8.632-3.793 15.301-13.622 15.301-22.475 0-4.407-1.787-9.244-4.662-13.417-2.874-4.172-6.802-7.63-11.024-9.32h-.004l-5.2-2.134-.302-.124-.008-.326-.4-15.6-.388-15.25-46.981-.396h-.002l-47.866.568zm86.836 17.432l-39.933-.034h0-40.5V74l-.066-4.96-.007-.506h.506l40.067-.034h.002l39.742.133.499.002v5.488l.19 4.891.021.52h-.521zm.334 79.5v.196l-.133.144-3.333 3.599v.001l-3.2 3.466-.148.161H153.9c-9.098 0-15.981-.009-21.223-.161-5.235-.152-8.87-.448-11.454-1.035-2.599-.59-4.195-1.486-5.291-2.876-1.072-1.36-1.618-3.144-2.247-5.359l-.002-.01-.003-.01c-.178-.748-.346-2.349-.502-4.575-.157-2.243-.303-5.161-.428-8.573-.25-6.823-.417-15.629-.417-24.968v-.004l.233-32.933.003-.496H193.333V159.034zm19.269-49.178l.005.007.004.008c4.239 8.206 1.401 18.793-6.213 22.673l-.005.002-3.991 2.129-.736.392V101.134l.736.392 3.988 2.127a.02.02 0 01.006.004c1.134.568 2.376 1.575 3.477 2.693 1.105 1.122 2.102 2.391 2.729 3.506z" fill="#000" stroke="#000"/><path fill="#EA8A8A" d="M113 69.034h80v10h-80z"/><path d="M116 162.534c-4-2-4-23-2.866-76.5H193l-.5 73-6.5 7-59.5-.5-7.5-1.5-3-1.5z" fill="red" stroke="#000"/><path fill="#EA8A8A" d="M127 86.034h28v49h-28z"/><path d="M170.1 112.401c0 1.2 1.867 4.267 4.267 6.667l4.267 4.4-4.267 4.4c-4.267 4.4-5.733 10.267-2.533 10.267.933 0 4.933-3.2 8.8-7.2l7.2-7.2-6.4-6.8c-6.4-6.8-11.334-8.8-11.334-4.534z" fill="#000"/><ellipse cx="141" cy="134.534" rx="14" ry="8.5" fill="#EA8A8A"/><path d="M129.034 115.868c-3.067 3.067-5.6 6.8-5.6 8.267 0 3.2 10.4 14 13.6 14 3.866 0 2.8-4.134-2.534-9.6l-4.933-5.067 4.933-5.067c2.667-2.8 4.934-5.733 4.934-6.666 0-3.334-4.934-1.334-10.4 4.133zM151.967 121.735c-6 12.933-6.8 17.066-3.2 17.066 2.4 0 15.067-25.6 14.133-28.266-1.866-4.667-5.2-1.2-10.933 11.2z" fill="#000"/><path d="M161.5 148.534H121l-3.5-.5-2.5-1-2-1 .5 7 .5 5 1.5 3.5 1.5 1 2 1 7.5 1.5h26l33.5.5 6.5-7-.5-25-4 3-3 2.5-3 2-3.5 2-4.5 2-4 1.5-4.5 1.5-4 .5z" fill="#BC0000"/><path d="M106.163 62.102l-.002.009c-.029.172-.059.43-.09.775-.061.688-.12 1.686-.176 2.964-.112 2.554-.212 6.203-.295 10.677-.167 8.946-.267 21.176-.267 34.507 0 20.47.067 32.759.35 40.331.141 3.787.336 6.379.601 8.216.265 1.84.596 2.89.989 3.615l.001.003 2.134 4 .392.735H82.3l-1.22-.002c-2.996-.009-5.825-.016-7.819.439-1.133.259-1.88.645-2.259 1.159-.324.442-.448 1.081-.122 2.08a.612.612 0 01.333.556c0 .075 0 .104-.002.114.015.023.11.146.517.321.41.175 1.08.379 2.164.592 4.345.857 14.942 1.808 40.681 2.141 33.2.4 72.523.4 87.576-.133h0l26.851-.917v-5.696l-15.113-.387-15.6-.4-.746-.02.301-.682 1.997-4.526.002-.004c.508-1.21.967-3.127 1.298-5.262.33-2.128.527-4.436.527-6.406v-7.659l.298-.132 5.734-2.533.001-.001c8.632-3.793 15.301-13.622 15.301-22.475 0-4.407-1.787-9.244-4.662-13.417-2.874-4.172-6.802-7.63-11.024-9.32h-.004l-5.2-2.134-.302-.124-.008-.326-.4-15.6-.388-15.25-46.981-.396h-.002l-47.866.568zm86.836 17.432l-39.933-.034h0-40.5V74l-.066-4.96-.007-.506h.506l40.067-.034h.002l39.742.133.499.002v5.488l.19 4.891.021.52h-.521zm.334 79.5v.196l-.133.144-3.333 3.599v.001l-3.2 3.466-.148.161H153.9c-9.098 0-15.981-.009-21.223-.161-5.235-.152-8.87-.448-11.454-1.035-2.599-.59-4.195-1.486-5.291-2.876-1.072-1.36-1.618-3.144-2.247-5.359l-.002-.01-.003-.01c-.178-.748-.346-2.349-.502-4.575-.157-2.243-.303-5.161-.428-8.573-.25-6.823-.417-15.629-.417-24.968v-.004l.233-32.933.003-.496H193.333V159.034zm19.269-49.178l.005.007.004.008c4.239 8.206 1.401 18.793-6.213 22.673l-.005.002-3.991 2.129-.736.392V101.134l.736.392 3.988 2.127a.02.02 0 01.006.004c1.134.568 2.376 1.575 3.477 2.693 1.105 1.122 2.102 2.391 2.729 3.506z" fill="#000" stroke="#000"/></svg>